HIERARCHY
ROOT Hips
{
	OFFSET 0.000000 88.474243 0.000000
	CHANNELS 6 Xposition Yposition Zposition Zrotation Yrotation Xrotation 
	JOINT Hips_Spine
	{
		OFFSET 0.000000 0.000000 0.000000
		CHANNELS 3 Zrotation Yrotation Xrotation
		JOINT Spine
		{
			OFFSET 0.005100 8.711998 -0.691000
			CHANNELS 3 Zrotation Yrotation Xrotation
			JOINT Spine1
			{
				OFFSET -0.009200 8.660301 -1.275000
				CHANNELS 3 Zrotation Yrotation Xrotation
				JOINT Spine2
				{
					OFFSET 0.006300 9.852501 -1.857000
					CHANNELS 3 Zrotation Yrotation Xrotation
					JOINT Spine2_Neck
					{
						OFFSET 0.000000 0.000000 0.000000
						CHANNELS 3 Zrotation Yrotation Xrotation
						JOINT Neck
						{
							OFFSET 0.016300 11.420799 -0.263300
							CHANNELS 3 Zrotation Yrotation Xrotation
							End Site #name: Head
							{
								OFFSET -0.019200 9.262405 2.362500
							}
						}
					}
					JOINT Spine2_LeftShoulder
					{
						OFFSET 0.000000 0.000000 0.000000
						CHANNELS 3 Zrotation Yrotation Xrotation
						JOINT LeftShoulder
						{
							OFFSET 5.616900 6.732201 -0.345700
							CHANNELS 3 Zrotation Yrotation Xrotation
							JOINT LeftArm
							{
								OFFSET 10.664888 -0.183372 -2.440700
								CHANNELS 3 Zrotation Yrotation Xrotation
								JOINT LeftForeArm
								{
									OFFSET 27.459126 0.000000 0.000000
									CHANNELS 3 Zrotation Yrotation Xrotation
									End Site #name: LeftHand
									{
										OFFSET 21.306858 0.000000 0.000000
									}
								}
							}
						}
					}
					JOINT Spine2_RightShoulder
					{
						OFFSET 0.000000 0.000000 0.000000
						CHANNELS 3 Zrotation Yrotation Xrotation
						JOINT RightShoulder
						{
							OFFSET -5.580300 6.737503 -0.344400
							CHANNELS 3 Zrotation Yrotation Xrotation
							JOINT RightArm
							{
								OFFSET -10.679335 -0.188484 -2.383900
								CHANNELS 3 Zrotation Yrotation Xrotation
								JOINT RightForeArm
								{
									OFFSET -27.503529 0.000000 0.000000
									CHANNELS 3 Zrotation Yrotation Xrotation
									End Site #name: RightHand
									{
										OFFSET -21.306808 0.000000 0.000000
									}
								}
							}
						}
					}
				}
			}
		}
	}
	JOINT Hips_LeftUpLeg
	{
		OFFSET 0.000000 0.000000 0.000000
		CHANNELS 3 Zrotation Yrotation Xrotation
		JOINT LeftUpLeg
		{
			OFFSET 6.857700 -6.739601 0.312100
			CHANNELS 3 Zrotation Yrotation Xrotation
			JOINT LeftLeg
			{
				OFFSET -0.367590 -34.731552 -4.572400
				CHANNELS 3 Zrotation Yrotation Xrotation
				End Site #name: LeftFoot
				{
					OFFSET 0.367590 -34.656704 -6.067400
				}
			}
		}
	}
	JOINT Hips_RightUpLeg
	{
		OFFSET 0.000000 0.000000 0.000000
		CHANNELS 3 Zrotation Yrotation Xrotation
		JOINT RightUpLeg
		{
			OFFSET -6.876100 -6.733299 0.301000
			CHANNELS 3 Zrotation Yrotation Xrotation
			JOINT RightLeg
			{
				OFFSET 0.347353 -34.795158 -4.515900
				CHANNELS 3 Zrotation Yrotation Xrotation
				End Site #name: RightFoot
				{
					OFFSET -0.347353 -34.589367 -6.070300
				}
			}
		}
	}
}
MOTION
Frames: 12
Frame Time: 0.041667
0.029471 -0.019418 -0.072521 -177.314565 59.018667 -173.332237 -0.000000 -0.000000 0.000000 -3.867354 3.509180 -1.014253 0.984724 -0.281605 0.443434 0.000000 0.000000 0.000000 0.343336 -0.920315 -2.971366 -1.795813 -8.352618 -0.521532 0.561207 -0.062776 -1.168488 -3.225063 -7.626082 1.549633 -78.107699 -8.817564 9.500994 0.873758 -16.830100 3.550742 0.294196 -0.458131 -1.662220 18.319356 13.031957 4.492655 51.401075 11.841223 -9.319224 -7.836599 72.486939 -1.421528 -0.000000 -0.000000 0.000000 -8.364570 18.660779 -15.842681 -7.467144 -37.509515 1.052919 -0.000000 -0.000000 -0.000000 -8.851277 -31.271564 -7.227322 -15.159399 -10.342541 14.836223 
-0.238218 -0.197490 -0.110134 179.851784 63.059239 -174.735493 -0.000000 -0.000000 0.000000 -5.775965 2.135707 1.413157 1.250781 -0.510878 -0.625837 0.000000 0.000000 0.000000 1.160912 -0.622058 -3.028515 -0.504263 -16.360072 0.182845 0.708399 -0.264969 -1.874233 -2.063393 -9.210542 1.784188 -84.178103 -15.426483 5.809663 -1.120805 -13.816852 1.574285 1.068890 -0.749158 -0.664027 23.839934 16.268912 4.857709 50.370356 10.323194 -10.534811 -6.303283 56.968359 -0.196646 -0.000000 -0.000000 -0.000000 -6.546418 19.837962 -13.467714 -3.864774 -35.304767 -4.998732 -0.000000 -0.000000 -0.000000 -9.361017 -37.428171 -5.829110 -13.050844 -6.449897 14.107044 
-0.267379 -0.273136 -0.126233 178.208503 51.413265 -176.329128 -0.000000 -0.000000 0.000000 -6.757028 -0.516267 1.981526 1.522058 -0.540900 -1.294192 0.000000 0.000000 0.000000 1.620763 -0.787472 -3.263929 -1.428659 -25.935595 0.355176 0.781360 -0.222925 -2.399551 -0.753877 -8.341818 1.149601 -85.964216 -16.600099 0.741445 -0.846481 -8.340524 1.788280 1.453734 -0.864904 -2.151621 25.340811 18.412471 5.820646 51.460992 9.666809 -5.607125 -4.523964 53.874456 2.677323 -0.000000 0.000000 -0.000000 -5.125189 20.850403 -11.820797 -2.842384 -34.241967 -7.384685 -0.000000 -0.000000 -0.000000 -9.930907 -43.025118 -3.499371 -12.792715 -6.297319 14.964627 
-0.142922 -0.322170 -0.143417 178.342682 38.635012 -177.023600 -0.000000 -0.000000 0.000000 -6.687334 -1.394757 2.773815 1.213319 -0.823412 -1.690711 0.000000 0.000000 0.000000 1.547927 -1.039184 -3.177121 -2.097568 -30.813617 0.291626 0.660679 -0.398492 -2.791273 -0.321700 -7.523543 0.802029 -86.979094 -17.813696 -1.142735 -0.586475 -5.755444 1.795519 1.227627 -1.293837 -2.337056 24.014932 18.063538 5.865891 51.892440 10.719569 -3.058589 -2.966379 53.390081 3.919085 -0.000000 0.000000 -0.000000 -4.469262 21.664107 -10.542063 -2.167078 -35.184565 -8.356774 -0.000000 -0.000000 -0.000000 -10.930177 -50.272046 -2.080837 -13.015547 -5.483831 16.153256 
0.014561 -0.343557 -0.198752 177.900430 26.627589 -177.721585 -0.000000 -0.000000 0.000000 -6.156204 -1.574344 2.999530 0.761658 -1.083427 -1.906933 0.000000 0.000000 0.000000 1.319935 -1.272318 -2.812501 -2.052057 -32.636185 0.139433 0.373946 -0.610338 -2.867810 -0.380374 -6.703349 0.622360 -87.544416 -18.686106 -1.075329 -0.037158 -4.509798 2.278360 0.802127 -1.558807 -2.055392 21.635010 16.821923 5.493178 52.428130 11.442312 -0.303063 -2.177777 53.776134 3.697749 -0.000000 0.000000 -0.000000 -4.187766 22.257312 -9.883923 -1.866928 -35.972110 -8.837148 -0.000000 -0.000000 -0.000000 -11.553139 -55.805110 -1.462631 -13.502187 -4.654150 17.313851 
0.181446 -0.342519 -0.290543 177.044523 16.686447 -178.245920 -0.000000 -0.000000 0.000000 -5.499936 -1.401350 3.057670 0.354847 -1.287980 -1.763692 0.000000 0.000000 0.000000 1.074818 -1.400843 -2.186210 -1.427867 -32.254458 -0.646499 0.092554 -0.778951 -2.550771 -0.609129 -5.861764 0.527813 -87.879927 -18.732884 -0.288790 0.796393 -4.131219 3.027195 0.447476 -1.669884 -1.486254 19.445665 15.499462 5.451915 53.060641 10.980603 2.101126 -2.409793 53.540510 2.623378 -0.000000 0.000000 -0.000000 -4.327963 22.363915 -9.789336 -1.745824 -36.548322 -9.209975 -0.000000 -0.000000 -0.000000 -11.567599 -59.541865 -1.613168 -13.986814 -4.141049 18.214141 
0.353589 -0.321530 -0.404695 176.148029 9.241953 -178.523173 -0.000000 -0.000000 0.000000 -5.168437 -0.655710 3.109237 0.074272 -1.350521 -1.253049 0.000000 0.000000 0.000000 0.856282 -1.442875 -1.400943 -0.664912 -30.966219 -1.715790 -0.095315 -0.879626 -2.052125 -0.866914 -5.062074 0.467660 -87.760655 -18.737211 0.501967 1.422383 -4.628927 3.558190 0.185890 -1.723182 -0.872600 17.766348 14.257452 5.752031 54.156405 9.010037 5.823384 -2.547450 52.211389 2.168969 -0.000000 0.000000 -0.000000 -4.572125 22.021393 -9.894484 -1.714904 -37.102838 -9.620444 -0.000000 -0.000000 -0.000000 -11.354347 -61.161605 -1.980697 -14.617312 -4.231130 18.628650 
0.525394 -0.290501 -0.530042 175.431911 3.701181 -178.627830 -0.000000 -0.000000 0.000000 -5.057748 0.537976 3.118112 -0.060727 -1.328070 -0.567921 0.000000 0.000000 0.000000 0.676117 -1.427426 -0.577678 -0.158368 -29.592642 -2.586102 -0.211669 -0.908277 -1.522665 -1.026201 -4.449701 0.441734 -87.341740 -18.991629 1.073480 1.862343 -5.552395 3.744481 0.033759 -1.738471 -0.594284 16.695380 13.682316 5.409094 54.955644 7.196929 8.434844 -2.315945 49.831506 2.370785 -0.000000 0.000000 -0.000000 -4.754622 21.533658 -9.931267 -1.683130 -37.554985 -10.025646 -0.000000 -0.000000 -0.000000 -11.233644 -61.877106 -2.329472 -15.080549 -4.582959 18.610230 
0.695991 -0.253017 -0.654597 174.935520 -1.188831 -178.657922 -0.000000 -0.000000 0.000000 -5.141779 1.459107 3.202173 -0.138301 -1.278101 0.071095 0.000000 0.000000 0.000000 0.511716 -1.384002 0.083976 0.131708 -28.628188 -3.061621 -0.296646 -0.905394 -1.150681 -1.020997 -4.089848 0.474508 -86.736943 -19.419374 1.746484 2.122386 -6.942381 3.566713 -0.093783 -1.767455 -0.370467 15.870784 13.338014 4.991081 55.316154 6.520007 8.756216 -1.897251 46.422665 2.894975 -0.000000 0.000000 -0.000000 -4.781905 21.049435 -9.562640 -1.631928 -37.955565 -10.506009 -0.000000 -0.000000 -0.000000 -11.183788 -61.961492 -2.583243 -15.275972 -5.097710 18.255304 
0.860547 -0.207050 -0.783646 174.624455 -5.782249 -178.658324 -0.000000 -0.000000 0.000000 -5.438106 2.015574 3.350689 -0.188322 -1.238944 0.583296 0.000000 0.000000 0.000000 0.396405 -1.355397 0.529030 0.398743 -28.304690 -3.188669 -0.364088 -0.912015 -0.897740 -0.847918 -3.989142 0.539458 -86.249489 -19.961977 2.349125 2.385653 -8.567533 2.973189 -0.216142 -1.793693 -0.235488 15.256046 12.999541 4.641432 55.559633 6.113501 8.644977 -1.457427 43.387279 3.487766 -0.000000 0.000000 -0.000000 -4.694696 20.667987 -8.949829 -1.583058 -38.367510 -10.891808 -0.000000 -0.000000 -0.000000 -11.298270 -61.602065 -2.592479 -15.308571 -5.895452 17.623664 
1.017189 -0.152471 -0.921518 174.414463 -10.200512 -178.598960 -0.000000 -0.000000 0.000000 -5.839611 2.144157 3.616599 -0.223428 -1.267706 0.855242 0.000000 0.000000 0.000000 0.332224 -1.364063 0.754879 0.825750 -28.523929 -3.336803 -0.404535 -0.943427 -0.760716 -0.567615 -4.130993 0.620657 -85.974218 -20.598515 2.880677 2.598906 -10.405965 2.237075 -0.308282 -1.845526 -0.171619 14.834255 12.646757 4.423478 55.777169 5.771146 8.801767 -1.041253 41.765226 4.056827 0.000000 0.000000 -0.000000 -4.527516 20.386689 -8.194499 -1.542576 -38.816359 -11.209383 -0.000000 -0.000000 -0.000000 -11.520148 -61.008814 -2.423008 -14.933628 -6.770047 16.789683 
1.165558 -0.092629 -1.071685 174.314554 -13.804340 -178.539671 -0.000000 -0.000000 0.000000 -6.295422 1.980966 3.808869 -0.235802 -1.362807 0.959963 0.000000 0.000000 0.000000 0.312941 -1.408240 0.867731 1.232068 -28.989337 -3.430467 -0.411731 -1.011460 -0.699983 -0.258622 -4.402346 0.700749 -85.884425 -21.057059 3.425700 2.662542 -12.022949 1.500562 -0.351671 -1.934581 -0.157489 14.558074 12.353280 4.260710 55.918835 5.628969 8.630076 0.385861 40.866668 5.073578 0.000000 0.000000 -0.000000 -4.301122 20.132162 -7.401419 -1.510096 -39.277634 -11.499974 -0.000000 -0.000000 -0.000000 -11.807178 -60.416144 -2.177076 -14.362293 -7.667730 15.889978 
